<?xml version="1.0" encoding="UTF-8"?>
<svg xmlns="http://www.w3.org/2000/svg" viewBox="0 0 900 320" font-family="Segoe UI, Arial, sans-serif">
  <rect width="900" height="320" fill="#0d1117"/>
  <text x="450" y="32" fill="#e6edf3" font-size="18" font-weight="700" text-anchor="middle">Software &amp; FPGA Data Flow</text>

  <rect x="30" y="60" width="150" height="70" rx="8" fill="#21262d" stroke="#58a6ff"/>
  <text x="105" y="92" fill="#58a6ff" font-size="13" font-weight="600" text-anchor="middle">NEO-6M</text>
  <text x="105" y="112" fill="#8b949e" font-size="11" text-anchor="middle">NMEA @ 9600</text>

  <rect x="230" y="55" width="170" height="80" rx="8" fill="#21262d" stroke="#d29922"/>
  <text x="315" y="88" fill="#d29922" font-size="13" font-weight="600" text-anchor="middle">FPGA PL</text>
  <text x="315" y="108" fill="#8b949e" font-size="11" text-anchor="middle">axi_uartlite_0</text>
  <text x="315" y="124" fill="#484f58" font-size="10" text-anchor="middle">Pin 8/10 · gps_uart.bin</text>

  <rect x="450" y="55" width="170" height="80" rx="8" fill="#21262d" stroke="#3fb950"/>
  <text x="535" y="88" fill="#3fb950" font-size="13" font-weight="600" text-anchor="middle">Linux ARM</text>
  <text x="535" y="108" fill="#8b949e" font-size="11" text-anchor="middle">/dev/mem MMIO</text>
  <text x="535" y="124" fill="#484f58" font-size="10" text-anchor="middle">0x42C00000</text>

  <rect x="670" y="55" width="200" height="80" rx="8" fill="#21262d" stroke="#a371f7"/>
  <text x="770" y="88" fill="#a371f7" font-size="13" font-weight="600" text-anchor="middle">gps_web.py</text>
  <text x="770" y="108" fill="#8b949e" font-size="11" text-anchor="middle">HTTP :8080</text>
  <text x="770" y="124" fill="#484f58" font-size="10" text-anchor="middle">Map + NMEA tab</text>

  <polygon points="180,95 230,95 230,105 180,105" fill="#58a6ff"/>
  <polygon points="400,95 450,95 450,105 400,105" fill="#d29922"/>
  <polygon points="620,95 670,95 670,105 620,105" fill="#3fb950"/>

  <rect x="80" y="180" width="740" height="110" rx="10" fill="#161b22" stroke="#30363d"/>
  <text x="450" y="208" fill="#e6edf3" font-size="14" font-weight="600" text-anchor="middle">Browser (PC)</text>
  <text x="120" y="240" fill="#8b949e" font-size="12">GET / ’ HTML dashboard</text>
  <text x="120" y="262" fill="#8b949e" font-size="12">GET /data ’ JSON (fix, lat, lon, sats, nmea_decoded)</text>
  <text x="120" y="284" fill="#484f58" font-size="11">Map tiles from OpenStreetMap (PC internet)</text>
</svg>
